<?xml version="1.0" standalone="no"?>
<!DOCTYPE svg PUBLIC "-//W3C//DTD SVG 20010904//EN"
 "http://www.w3.org/TR/2001/REC-SVG-20010904/DTD/svg10.dtd">
<svg version="1.0" xmlns="http://www.w3.org/2000/svg"
 width="606.000000pt" height="606.000000pt" viewBox="0 0 606.000000 606.000000"
 preserveAspectRatio="xMidYMid meet">
<metadata>
Created by potrace 1.14, written by Peter Selinger 2001-2017
</metadata>
<g transform="translate(0.000000,606.000000) scale(0.100000,-0.100000)"
fill="#000000" stroke="none">
<path d="M2977 5954 c-1 -1 -61 -4 -134 -8 -73 -3 -138 -8 -145 -11 -7 -2 -33
-6 -58 -9 -101 -13 -268 -47 -360 -72 -90 -26 -244 -74 -265 -84 -11 -5 -60
-25 -110 -45 -122 -50 -269 -125 -395 -204 -221 -137 -362 -250 -555 -445
-334 -337 -560 -710 -708 -1172 -20 -61 -38 -121 -41 -135 -2 -13 -11 -53 -20
-89 -8 -36 -17 -78 -20 -95 -3 -16 -8 -39 -10 -50 -2 -11 -7 -42 -10 -68 -4
-27 -9 -57 -11 -67 -26 -136 -26 -536 0 -745 78 -614 368 -1216 801 -1661 188
-193 368 -336 595 -472 218 -131 437 -225 724 -312 85 -25 285 -67 366 -75 30
-4 60 -8 67 -10 48 -16 416 -23 573 -12 81 6 276 31 329 42 14 3 48 10 75 15
192 38 466 136 681 242 521 259 969 686 1251 1193 46 83 62 116 136 275 14 30
44 109 67 175 58 169 87 277 115 425 3 14 7 36 10 50 8 41 15 98 29 230 12
119 14 466 2 540 -2 19 -7 60 -11 90 -7 66 -12 102 -31 200 -152 780 -606
1452 -1279 1893 -107 70 -354 202 -445 237 -30 12 -68 28 -85 35 -77 35 -341
114 -435 130 -19 3 -51 10 -70 15 -19 5 -53 11 -75 14 -22 3 -73 10 -112 16
-102 14 -426 32 -436 24z m-1061 -953 c17 -11 56 -57 86 -103 114 -174 384
-595 468 -728 22 -36 191 -299 376 -585 184 -286 367 -571 407 -633 40 -62
104 -161 142 -221 113 -174 399 -618 415 -645 41 -68 293 -456 296 -456 2 0 3
740 3 1645 0 1796 -4 1680 56 1719 66 43 146 24 182 -42 20 -37 20 -52 19
-1932 -1 -1794 -2 -1897 -19 -1923 -51 -77 -158 -82 -218 -9 -13 15 -94 137
-179 270 -85 134 -228 356 -317 495 -89 139 -196 306 -238 372 -42 66 -114
179 -160 250 -144 223 -189 294 -215 335 -33 53 -214 336 -516 805 -134 209
-306 477 -381 596 -76 120 -140 215 -142 214 -2 -2 -3 -739 -2 -1637 0 -1441
-2 -1637 -15 -1668 -32 -73 -120 -101 -184 -58 -72 48 -66 -122 -66 1981 l1
1896 21 28 c11 15 32 34 45 40 36 19 100 16 135 -6z"/>
</g>
</svg>
